<?xml version="1.0" encoding="UTF-8"?>
<svg id="Calque_2" data-name="Calque 2" xmlns="http://www.w3.org/2000/svg" viewBox="0 0 61.56 40.37">
  <g id="Calque_1-2" data-name="Calque 1">
    <path d="M30.45.01h.47c1.21-.05,2.28.67,3.47.6.73-.05,1.42-.4,2.17-.48,1.59-.17,2.89.39,4.4.63,1.64.27,3.29.22,4.93.53,7.48,1.37,13.6,7.26,15.15,14.71,1.41,6.78-.02,12.64-4.83,17.61-2.47,2.55-6.65,5.02-10.19,5.52-1.28.18-2.6.18-3.88.4-1.15.19-2.25.59-3.42.75-1.34.18-2.52.01-3.85-.09-.67-.05-1.13-.16-1.81-.06-.43.06-.84.19-1.28.22-1.02.06-2.29.01-3.32-.07-2.66-.2-5.3-1.12-7.94-1.52-2.8-.43-6.14-.88-8.62-2.31-.74-.43-.8-.72-1.25-1.36-1.09-1.55-3.02-1.75-4.45-2.85-2.46-1.89-2.29-4.73-1.33-7.38.27-.75,1.04-2.3,1.04-3,0-1.37-1.42-2.16-2.34-2.92-.44-.36-.88-.72-1.31-1.08C1.06,16.83-.12,16.17,0,14.39c.68-2.74,1.29-5.53,2.08-8.24.45-1.55.98-2.6,2.66-3.04,1-.26,2.19-.37,3.23-.59,1.19-.25,2.63-.77,3.84-.69,1.63.11,3.34,1.19,4.9,1.6.08.02.21.05.29.05.25-.01,1.1-.46,1.4-.58,1.98-.8,3.91-1.32,5.99-1.79S28.41.18,30.45.01ZM32.94,1.06c-.51-.06-1-.25-1.51-.29-.76-.05-1.57.06-2.32.16-3.23.44-6.43,1.18-9.5,2.26-.51.18-1.23.43-1.7.66-.03.02-.08.02-.08.06.15.08.26.14.42.2,1.44.51,2.73.6,4.13,1.36.35.19,1.07.74,1.4.79.51.09.7-.25,1.06-.48,1.08-.71,2.29-1.38,3.42-2.03,1.22-.71,2.51-1.49,3.76-2.13.29-.15.58-.28.88-.39l.03-.17ZM39.25,1.09c-1.3-.34-2.76-.39-4.04.09-.04.01-.16.03-.14.09s1.01.58,1.16.58c.97-.27,2.01-.41,2.97-.69.05-.01.06.02.05-.06ZM35.2,2.17c-.33-.12-.62-.39-.95-.5-.21-.07-.27-.09-.48-.01-.48.18-1.05.48-1.52.71-2.58,1.24-4.95,2.83-7.41,4.28l-.19.16,2.25,1.54c1.96-2.42,4.39-4.33,7.21-5.66.34-.16.73-.28,1.05-.45.03-.02.06.02.05-.07ZM16.2,3.92l-4.08-1.35c-1.17-.28-2.29.3-3.44.55s-2.49.35-3.62.66c-.88.24-1.62.78-2.01,1.63-.74,2.75-1.54,5.52-2.19,8.29-.41,1.73.17,2.22,1.39,3.26,1.05.9,2.25,1.7,3.27,2.63,2.04,1.85.79,3.36.04,5.46-.55,1.53-.95,2.95-.4,4.56,1,2.95,4.08,2.75,5.92,4.85.74.84.71,1.17,1.84,1.69.86.4,1.86.76,2.78.98l-.22-.29c-3.16-2.74-3.74-7.21-4.71-11.07-.65-2.59-1.25-4.34-.75-7.1.56-3.06,1.73-6.39,2.62-9.39.44-1.49.61-2.8,1.77-3.97l1.78-1.39ZM37.34,36.87c.95.23,1.91.47,2.89.57.84.09,2.93.26,3.6-.23.26-.19.61-.55.85-.77,3.17-3.06,5.11-7.13,6.69-11.19.62-1.6,1.27-3.25,1.35-4.99.27-5.85-2.47-12.67-7.09-16.33-1.44-1.14-2.73-1.11-4.49-.99-.93.07-1.85.22-2.76.41-.01.05.02.06.05.09.67.65,1.51,1.23,2.22,1.86.95.85,2.22,2.06,3,3.06.54.69.71,1.89.88,2.75.97,4.86.86,9.65-.82,14.33-1.31,3.65-3.33,7.24-5.59,10.38-.08.11-.8.99-.76,1.04ZM45.21,37.25c2.21-.31,4.36-1.19,6.25-2.38,5.44-3.42,8.38-9.14,8.07-15.58-.3-6.39-3.73-11.2-9.16-14.33-1.25-.72-2.68-1.4-4.13-1.55l-.02.13c.21.1.31.28.46.43.61.62,1.25,1.19,1.83,1.83,3.26,3.6,4.59,8.47,4.89,13.24.13,1.97-.39,3.58-.98,5.42-1.15,3.62-2.7,6.64-4.92,9.7-.71.98-1.53,1.93-2.21,2.93-.02.03-.11.13-.08.16ZM28.86,31.36s.28.33.33.38c1.56,1.5,2.79,2.67,4.73,3.71.5.27,1.73.92,2.23,1.02.29.06.42,0,.61-.19.51-.54,1.12-1.39,1.56-2.01,2.16-3.03,4.19-7.25,5.27-10.82,1.26-4.15.81-9.11-.05-13.32-.08-.4-.16-.78-.37-1.13-1.43-1.58-2.97-3.08-4.61-4.44-.33-.27-.91-.84-1.34-.86-.28-.01-1.38.43-1.7.56-1.42.57-2.75,1.32-3.95,2.27-1.13.88-2.1,1.94-3.09,2.96l1.5,1.21c.77.57,1.55,1.19,2.47,1.52.51.18.98.21,1.39.62.58.59.84,2.38,1.15,3.22s.71.79.49,1.86c-.29,1.39-.97,3.01-1.62,4.28-.73,1.42-1.7,2.66-2.02,4.26-.1.5-.08,1.01-.18,1.51-.28,1.33-1.15,1.87-2.06,2.72-.24.23-.46.51-.73.69ZM23.38,6.89c-.97-.51-1.89-1.14-2.96-1.43s-2.06-.6-3.09-.89c-.36-.1-.42-.09-.75.06-1.06.46-2.23,1.63-2.64,2.72-.36.95-.58,2.11-.88,3.11-1.11,3.76-3.1,8.48-2.3,12.4.46,2.26,1.15,4.71,1.75,6.95.44,1.64.96,3.25,1.86,4.71,1.24,2,2.22,2.21,4.38,2.85.81.24,2.45.8,3.24.75.52-.03,1.12-.24,1.58-.49-.82-.83-1.79-1.62-2.45-2.59s-1.03-2-1.43-3.06c-.75-1.97-1.57-4.07-2.22-6.07-.9-2.79-.5-4.66.9-7.15.84-1.5,1.82-2.97,2.6-4.5.95-1.86.49-3.54,1.24-5.38.29-.72.77-1.32,1.16-1.98ZM24.03,7.27c-.4.62-.91,1.27-1.2,1.95-.44,1.05-.37,2.32-.58,3.44-.17.92-.44,1.56-.88,2.37-.83,1.55-1.83,3.03-2.66,4.58-1.11,2.07-1.35,3.88-.57,6.12.93,2.68,2.14,5.32,3.1,7.99.58,1.31,1.57,2.38,2.75,3.18.06,0,.11-.08.14-.12.2-.28.39-.79.57-1.12.45-.8.96-1.57,1.52-2.3.14-.18.71-.79.74-.95.02-.07.02-.17,0-.24-.02-.12-.45-.59-.56-.75-3.21-4.49-4.24-9.75-3.18-15.18.35-1.82,1.05-3.67,1.96-5.28.39-.69.86-1.33,1.22-2.03l-2.38-1.67ZM34.45,16.94c-.19-.21-.51-2.08-.64-2.5-.44-1.48-1.3-1.42-2.46-2.03-1.14-.59-2.16-1.44-3.21-2.18h-.07c-3.25,4.25-4.06,10.05-2.49,15.15.59,1.93,1.55,3.79,2.89,5.3.04,0,.58-.46.65-.52.47-.43,1.41-1.26,1.66-1.81.31-.67.27-1.42.39-2.13.22-1.36.86-2.22,1.49-3.38.76-1.39,1.5-2.91,1.95-4.43.09-.29.26-.77.21-1.06-.04-.26-.26-.28-.37-.41ZM34.92,38.24c-1.98-1.14-4.06-2.17-5.77-3.71-.25-.22-.48-.48-.73-.7l-.94-1.04-2.85,4.42.11.2c2.62.99,5.41,1.31,8.12,1.92.79-.03,1.61-.43,2.06-1.08ZM24.43,38.06c-.41-.02-.84.35-1.18.54.55.2,1.14.33,1.71.45,1.44.31,2.94.5,4.42.55.41.01.87.02,1.28,0,.04,0,.12.02.11-.03-1.72-.37-3.48-.56-5.16-1.11M39.35,39.42c0-.06-.07-.05-.11-.07-.81-.28-1.88-.55-2.72-.75-.27-.06-.5-.15-.77-.06-.18.06-.81.66-.99.83-.03.03-.07.04-.07.09,1.54.29,3.13.27,4.65-.05Z"/>
  </g>
</svg>