<?xml version="1.0" encoding="UTF-8"?>
<svg id="Calque_2" data-name="Calque 2" xmlns="http://www.w3.org/2000/svg" viewBox="0 0 652.43 341.88">
  <defs>
    <style>
      .cls-1 {
        fill: #00000c;
      }

      .cls-2 {
        fill: #fff;
      }
    </style>
  </defs>
  <g id="Calque_1-2" data-name="Calque 1">
    <g>
      <path class="cls-1" d="M59.43,234.11h23.2v105.19h-26.07l-31.9-64.26v64.26H1.5v-105.19h31.86l26.07,55.73v-55.73Z"/>
      <circle class="cls-1" cx="637.36" cy="324.23" r="15.07"/>
      <path class="cls-1" d="M129.67,105.35V33.5H0V.16h201.33v33.34h-38.92v71.85h-32.74Z"/>
      <path class="cls-1" d="M245,69.27v35.92h-32.74V0h32.74v35.92h49.17V0h32.8v105.19h-32.8v-35.92h-49.17Z"/>
      <path class="cls-1" d="M337.9.16h314.53v26.92h-281.79v13.46h281.79v24.34h-281.79v13.46h281.79v27h-314.53V.16Z"/>
      <path class="cls-1" d="M266.4,115.76c23.05-.39,40.17,23.87,39.98,52.6.19,28.57-16.93,52.99-39.98,52.6H1.5v-105.19h264.9ZM260.27,149.11h-58.95v38.51h58.95c8.5,0,13.31-8.69,13.31-19.25s-4.81-19.25-13.31-19.25Z"/>
      <path class="cls-1" d="M344.93,115.76h38.92l45.04,105.19h-36.86l-6.62-18h-42.05l-6.62,18h-36.86l45.04-105.19ZM352.86,177.28h23.05l-11.5-31.07-11.56,31.07Z"/>
      <path class="cls-1" d="M512.3,115.69c17.31-.23,31.99,18,31.74,39.76,0,7.9-1.69,15.11-5.06,21.52-3.31,6.34-7.75,11.19-13.24,14.4l18.31,29.51h-34.86l-15.81-25.67h-29.24v25.67h-32.74v-105.19h80.91ZM464.13,146.44v17.92h39.92c2,0,3.69-.86,5.06-2.58s2.12-3.91,2.12-6.34c0-5.01-3.19-9-7.18-9h-39.92Z"/>
      <path class="cls-1" d="M554.16,111.77h98.27v26.92h-65.54v13.46h65.54v24.34h-65.54v13.46h65.54v27h-98.27v-105.19Z"/>
      <path class="cls-1" d="M124.98,234.11v105.19h-32.74v-105.19h32.74Z"/>
      <path class="cls-1" d="M191.71,281.54h57.04v60.34h-16.37l-1.62-16.36c-9.75,12.05-24.55,16.36-38.8,16.36-31.61-.16-57.48-11.58-57.35-51.34v-7.67c-.12-39.84,25.74-51.26,57.35-51.34,29.11,0,53.1,9.94,56.79,42.34h-34.8c-2.06-3.52-5.06-5.87-8.93-7.12-3.87-1.25-8.25-1.88-13.06-1.88-13.43.23-24.8,3.37-24.62,20.51v2.58c-.19,17.3,11.18,20.27,24.62,20.51,12.93,0,21.18-.94,26.11-8.92h-26.36v-18Z"/>
      <path class="cls-1" d="M296.42,303.38v35.92h-32.74v-105.19h32.74v35.92h49.17v-35.92h32.8v105.19h-32.8v-35.92h-49.17Z"/>
      <path class="cls-1" d="M428.68,339.3v-71.85h-38.92v-33.34h262.68v33.34h-191.02v71.85h-32.74Z"/>
      <path class="cls-2" d="M95.98,129.53l.91-.02c2.33-.07,4.4,1.31,6.7,1.17,1.41-.09,2.75-.77,4.18-.92,3.06-.33,5.57.74,8.5,1.22,3.16.51,6.34.43,9.5,1.01,14.44,2.65,26.24,14,29.23,28.37,2.72,13.07-.04,24.38-9.31,33.96-4.76,4.91-12.83,9.68-19.66,10.65-2.47.35-5.02.35-7.48.76-2.22.37-4.34,1.14-6.61,1.45-2.58.35-4.87.02-7.43-.18-1.28-.1-2.18-.3-3.5-.11-.82.12-1.63.37-2.47.42-1.97.11-4.42.02-6.4-.13-5.13-.39-10.23-2.17-15.32-2.94-5.4-.82-11.84-1.7-16.63-4.46-1.43-.83-1.53-1.39-2.41-2.63-2.1-2.98-5.83-3.37-8.59-5.49-4.75-3.65-4.42-9.11-2.57-14.24.52-1.44,2.01-4.44,2.01-5.79,0-2.64-2.73-4.16-4.51-5.63-.84-.69-1.69-1.39-2.52-2.09-2.31-1.96-4.58-3.23-4.34-6.67,1.31-5.29,2.49-10.66,4.01-15.9.87-2.99,1.89-5.02,5.13-5.87,1.94-.51,4.22-.72,6.24-1.14,2.3-.49,5.08-1.48,7.4-1.33,3.14.21,6.45,2.3,9.45,3.09.15.04.41.09.56.09.48-.02,2.11-.88,2.69-1.12,3.81-1.55,7.55-2.54,11.56-3.44,3.84-.87,7.75-1.78,11.67-2.1ZM100.78,131.54c-.98-.11-1.94-.48-2.92-.55-1.46-.1-3.03.12-4.48.32-6.23.84-12.4,2.28-18.32,4.37-.98.34-2.38.82-3.28,1.27-.06.03-.15.04-.15.12.29.16.5.27.81.39,2.77.98,5.27,1.15,7.96,2.62.68.37,2.07,1.42,2.71,1.53.98.17,1.36-.48,2.05-.93,2.08-1.38,4.42-2.66,6.59-3.92,2.36-1.37,4.85-2.88,7.26-4.12.55-.28,1.12-.54,1.7-.76l.06-.34ZM112.96,131.6c-2.51-.66-5.33-.75-7.79.17-.07.03-.31.06-.26.17s1.95,1.11,2.24,1.13c1.86-.52,3.88-.8,5.72-1.34.09-.03.11.04.09-.12ZM105.15,133.69c-.64-.24-1.19-.74-1.83-.97-.4-.14-.52-.18-.92-.02-.92.35-2.02.93-2.93,1.37-4.98,2.39-9.55,5.47-14.3,8.26l-.37.3,4.34,2.97c3.77-4.67,8.46-8.36,13.9-10.92.65-.31,1.4-.55,2.03-.86.06-.03.12.03.09-.13ZM68.5,137.07l-7.87-2.61c-2.25-.54-4.42.57-6.63,1.06-2.26.49-4.8.67-6.97,1.27-1.71.47-3.13,1.5-3.87,3.14-1.43,5.31-2.96,10.64-4.23,15.99-.79,3.34.34,4.28,2.67,6.29,2.02,1.74,4.34,3.29,6.3,5.07,3.93,3.58,1.53,6.48.08,10.53-1.06,2.94-1.82,5.68-.77,8.79,1.93,5.69,7.88,5.31,11.42,9.36,1.43,1.63,1.38,2.25,3.55,3.27,1.66.78,3.58,1.46,5.36,1.9l-.43-.55c-6.09-5.29-7.21-13.91-9.08-21.35-1.25-4.99-2.42-8.37-1.45-13.69,1.08-5.91,3.34-12.32,5.05-18.12.85-2.88,1.18-5.41,3.41-7.65l3.44-2.67ZM109.27,200.62c1.83.45,3.68.9,5.57,1.11,1.62.17,5.65.5,6.94-.44.49-.36,1.18-1.05,1.64-1.49,6.12-5.91,9.86-13.75,12.9-21.59,1.2-3.09,2.44-6.27,2.6-9.63.53-11.28-4.77-24.44-13.68-31.5-2.78-2.2-5.27-2.15-8.67-1.91-1.79.13-3.57.43-5.32.8-.02.1.03.12.09.18,1.3,1.26,2.91,2.37,4.27,3.6,1.84,1.65,4.28,3.97,5.78,5.9,1.04,1.34,1.37,3.64,1.7,5.3,1.86,9.38,1.66,18.61-1.58,27.64-2.53,7.04-6.42,13.96-10.77,20.02-.15.21-1.55,1.91-1.46,2.01ZM124.46,201.36c4.27-.61,8.42-2.3,12.05-4.58,10.49-6.6,16.15-17.64,15.56-30.05-.59-12.32-7.2-21.59-17.67-27.63-2.42-1.4-5.16-2.7-7.97-2.99l-.04.24c.4.19.61.54.89.83,1.17,1.19,2.42,2.29,3.54,3.53,6.28,6.94,8.85,16.34,9.44,25.54.24,3.8-.76,6.91-1.89,10.46-2.22,6.98-5.21,12.81-9.5,18.72-1.37,1.89-2.95,3.73-4.25,5.64-.04.06-.21.25-.16.3ZM92.92,189.99c-.06.08.54.64.64.74,3.01,2.89,5.38,5.15,9.13,7.16.96.51,3.33,1.77,4.3,1.97.55.11.8.01,1.17-.37.99-1.04,2.15-2.69,3-3.88,4.17-5.85,8.09-13.99,10.17-20.87,2.43-8,1.57-17.58-.1-25.69-.16-.76-.31-1.5-.71-2.18-2.76-3.05-5.73-5.93-8.9-8.56-.64-.53-1.76-1.63-2.58-1.66-.55-.02-2.66.83-3.29,1.08-2.75,1.1-5.3,2.55-7.62,4.37-2.18,1.71-4.05,3.74-5.97,5.71l2.9,2.33c1.49,1.11,2.98,2.3,4.76,2.93.98.35,1.89.4,2.68,1.2,1.12,1.14,1.61,4.6,2.21,6.21s1.38,1.52.94,3.58c-.56,2.69-1.87,5.8-3.12,8.25-1.4,2.74-3.27,5.12-3.89,8.22-.19.97-.15,1.96-.35,2.9-.54,2.56-2.22,3.61-3.97,5.25-.46.44-.89.99-1.41,1.32ZM82.34,142.79c-1.87-.99-3.64-2.2-5.7-2.75-2.01-.54-3.97-1.16-5.96-1.72-.69-.19-.8-.17-1.45.11-2.05.89-4.3,3.15-5.08,5.24-.69,1.84-1.12,4.07-1.69,5.99-2.14,7.25-5.98,16.36-4.44,23.92.89,4.36,2.22,9.08,3.38,13.4.85,3.17,1.85,6.28,3.58,9.08,2.4,3.86,4.29,4.26,8.45,5.51,1.56.47,4.73,1.54,6.24,1.44,1.01-.07,2.16-.46,3.04-.95-1.59-1.6-3.45-3.12-4.72-4.99-1.24-1.82-1.98-3.86-2.76-5.9-1.45-3.8-3.03-7.85-4.28-11.71-1.73-5.38-.97-8.98,1.73-13.8,1.62-2.9,3.51-5.72,5.02-8.68,1.83-3.59.94-6.83,2.4-10.39.57-1.38,1.48-2.54,2.24-3.81ZM83.6,143.53c-.78,1.2-1.76,2.44-2.32,3.76-.86,2.03-.72,4.47-1.12,6.63-.33,1.78-.84,3-1.69,4.58-1.61,2.99-3.54,5.85-5.12,8.83-2.14,4-2.6,7.48-1.1,11.81,1.79,5.17,4.13,10.26,5.97,15.42,1.12,2.52,3.04,4.6,5.31,6.13.11,0,.21-.14.27-.23.38-.54.75-1.52,1.11-2.15.87-1.55,1.86-3.03,2.94-4.44.27-.36,1.36-1.53,1.42-1.83.03-.14.03-.32,0-.46-.05-.23-.87-1.14-1.08-1.44-6.18-8.66-8.18-18.81-6.13-29.28.68-3.5,2.03-7.08,3.77-10.18.75-1.33,1.66-2.56,2.35-3.92l-4.58-3.22ZM103.69,162.19c-.37-.41-.99-4-1.23-4.82-.84-2.86-2.51-2.75-4.75-3.92-2.2-1.15-4.17-2.78-6.19-4.2h-.13c-6.27,8.2-7.82,19.39-4.81,29.21,1.14,3.72,3,7.31,5.57,10.23.08.01,1.11-.88,1.25-1.01.91-.83,2.71-2.44,3.21-3.49.6-1.29.52-2.74.75-4.11.42-2.62,1.66-4.29,2.88-6.52,1.47-2.67,2.89-5.6,3.76-8.54.16-.56.5-1.49.41-2.04-.08-.49-.49-.55-.72-.79ZM104.6,203.26c-3.83-2.19-7.83-4.19-11.13-7.16-.48-.43-.93-.92-1.42-1.35l-1.81-2-5.49,8.52.21.38c5.04,1.9,10.43,2.52,15.67,3.7,1.52-.06,3.1-.83,3.97-2.09ZM84.37,202.92c-.79-.03-1.62.68-2.28,1.05,1.07.39,2.19.64,3.31.87,2.78.59,5.67.97,8.53,1.07.78.03,1.68.03,2.46,0,.07,0,.23.05.21-.06-3.32-.72-6.71-1.08-9.95-2.13M113.15,205.53c-.02-.11-.13-.1-.21-.13-1.57-.53-3.63-1.06-5.25-1.45-.52-.12-.96-.3-1.49-.11-.35.12-1.56,1.28-1.9,1.6-.05.05-.14.08-.13.18,2.96.57,6.03.53,8.98-.09Z"/>
    </g>
  </g>
</svg>