<?xml version="1.0" encoding="UTF-8"?>
<svg id="Calque_2" data-name="Calque 2" xmlns="http://www.w3.org/2000/svg" viewBox="0 0 652.65 342">
  <defs>
    <style>
      .cls-1 {
        fill: #fff;
      }
    </style>
  </defs>
  <g id="Calque_1-2" data-name="Calque 1">
    <g>
      <path class="cls-1" d="M59.45,234.19h23.21v105.23h-26.08l-31.91-64.28v64.28H1.5v-105.23h31.87l26.08,55.74v-55.74Z"/>
      <circle class="cls-1" cx="637.58" cy="324.34" r="15.07"/>
      <path class="cls-1" d="M129.71,105.38V33.51H0V.16h201.39v33.35h-38.93v71.87h-32.75Z"/>
      <path class="cls-1" d="M245.08,69.29v35.94h-32.75V0h32.75v35.94h49.18V0h32.81v105.23h-32.81v-35.94h-49.18Z"/>
      <path class="cls-1" d="M338.01.16h314.64v26.93h-281.89v13.47h281.89v24.35h-281.89v13.47h281.89v27.01h-314.64V.16Z"/>
      <path class="cls-1" d="M266.48,115.8c23.06-.39,40.18,23.88,40,52.61.19,28.58-16.94,53-40,52.61H1.5v-105.23h264.98ZM260.36,149.16h-58.97v38.52h58.97c8.5,0,13.31-8.69,13.31-19.26s-4.81-19.26-13.31-19.26Z"/>
      <path class="cls-1" d="M345.04,115.8h38.93l45.06,105.23h-36.87l-6.62-18.01h-42.06l-6.62,18.01h-36.87l45.06-105.23ZM352.98,177.34h23.06l-11.5-31.08-11.56,31.08Z"/>
      <path class="cls-1" d="M512.47,115.72c17.31-.23,32,18.01,31.75,39.77,0,7.91-1.69,15.11-5.06,21.53-3.31,6.34-7.75,11.2-13.25,14.41l18.31,29.52h-34.87l-15.81-25.68h-29.25v25.68h-32.75v-105.23h80.93ZM464.28,146.49v17.93h39.93c2,0,3.69-.86,5.06-2.58s2.12-3.91,2.12-6.34c0-5.01-3.19-9-7.19-9h-39.93Z"/>
      <path class="cls-1" d="M554.34,111.81h98.31v26.93h-65.56v13.47h65.56v24.35h-65.56v13.47h65.56v27.01h-98.31v-105.23Z"/>
      <path class="cls-1" d="M125.03,234.19v105.23h-32.75v-105.23h32.75Z"/>
      <path class="cls-1" d="M191.77,281.63h57.06v60.36h-16.37l-1.62-16.36c-9.75,12.06-24.56,16.36-38.81,16.36-31.62-.16-57.5-11.59-57.37-51.36v-7.67c-.12-39.85,25.75-51.28,57.37-51.36,29.12,0,53.12,9.94,56.81,42.36h-34.81c-2.06-3.52-5.06-5.87-8.94-7.12s-8.25-1.88-13.06-1.88c-13.44.23-24.81,3.37-24.62,20.51v2.58c-.19,17.3,11.19,20.28,24.62,20.51,12.94,0,21.19-.94,26.12-8.93h-26.37v-18.01Z"/>
      <path class="cls-1" d="M296.51,303.48v35.94h-32.75v-105.23h32.75v35.94h49.18v-35.94h32.81v105.23h-32.81v-35.94h-49.18Z"/>
      <path class="cls-1" d="M428.82,339.41v-71.87h-38.93v-33.35h262.76v33.35h-191.08v71.87h-32.75Z"/>
      <path d="M96.01,129.57l.91-.02c2.33-.07,4.4,1.31,6.7,1.17,1.42-.09,2.75-.77,4.18-.92,3.06-.33,5.57.74,8.5,1.22,3.16.51,6.34.43,9.5,1.01,14.44,2.65,26.25,14.01,29.24,28.38,2.72,13.07-.04,24.39-9.32,33.97-4.76,4.91-12.83,9.69-19.66,10.66-2.47.35-5.02.35-7.48.76-2.22.37-4.35,1.14-6.61,1.45-2.58.35-4.87.02-7.43-.18-1.28-.1-2.18-.3-3.5-.11-.82.12-1.63.37-2.47.42-1.97.11-4.42.02-6.4-.13-5.13-.39-10.23-2.17-15.33-2.94-5.41-.82-11.85-1.7-16.63-4.46-1.43-.83-1.54-1.39-2.41-2.63-2.1-2.98-5.83-3.37-8.59-5.49-4.75-3.65-4.42-9.12-2.57-14.24.52-1.44,2.01-4.44,2.01-5.79,0-2.64-2.73-4.16-4.51-5.63-.84-.69-1.69-1.39-2.52-2.09-2.31-1.96-4.58-3.23-4.34-6.67,1.31-5.29,2.49-10.67,4.01-15.91.87-2.99,1.89-5.02,5.14-5.87,1.94-.51,4.22-.72,6.24-1.14,2.3-.49,5.08-1.48,7.4-1.33,3.14.21,6.45,2.3,9.45,3.09.15.04.41.09.56.09.48-.02,2.11-.88,2.69-1.12,3.81-1.55,7.55-2.54,11.56-3.45,3.84-.87,7.75-1.78,11.68-2.1ZM100.82,131.58c-.98-.11-1.94-.48-2.92-.55-1.46-.1-3.03.12-4.48.32-6.23.84-12.4,2.28-18.32,4.37-.98.35-2.38.82-3.28,1.27-.06.03-.15.04-.15.12.29.16.5.28.81.39,2.77.98,5.27,1.15,7.96,2.62.68.37,2.07,1.42,2.71,1.53.98.17,1.36-.48,2.05-.93,2.08-1.38,4.42-2.66,6.6-3.92,2.36-1.37,4.85-2.88,7.26-4.12.55-.28,1.12-.54,1.7-.76l.06-.34ZM113,131.64c-2.51-.66-5.33-.75-7.8.17-.07.03-.31.06-.26.17s1.95,1.11,2.24,1.13c1.86-.52,3.88-.8,5.72-1.34.09-.03.11.04.09-.12ZM105.19,133.73c-.64-.24-1.19-.74-1.83-.97-.4-.14-.52-.18-.92-.02-.92.35-2.02.93-2.93,1.37-4.98,2.39-9.56,5.47-14.3,8.27l-.37.3,4.34,2.97c3.78-4.68,8.47-8.36,13.91-10.92.65-.31,1.41-.55,2.03-.86.06-.03.12.03.09-.13ZM68.53,137.12l-7.87-2.61c-2.25-.54-4.42.57-6.63,1.06-2.26.49-4.8.67-6.98,1.27-1.71.47-3.13,1.5-3.87,3.14-1.43,5.31-2.96,10.64-4.23,16-.79,3.34.34,4.28,2.67,6.3,2.02,1.74,4.34,3.29,6.3,5.07,3.93,3.58,1.53,6.48.08,10.53-1.06,2.94-1.82,5.69-.77,8.79,1.93,5.69,7.88,5.31,11.43,9.36,1.43,1.63,1.38,2.25,3.56,3.27,1.66.78,3.58,1.46,5.36,1.9l-.43-.55c-6.09-5.29-7.21-13.92-9.08-21.36-1.25-5-2.42-8.38-1.45-13.7,1.08-5.91,3.34-12.32,5.05-18.13.85-2.88,1.18-5.41,3.41-7.65l3.44-2.67ZM109.31,200.68c1.83.45,3.68.9,5.57,1.11,1.62.17,5.65.5,6.94-.44.49-.36,1.18-1.05,1.64-1.49,6.13-5.91,9.86-13.76,12.9-21.6,1.2-3.09,2.44-6.28,2.6-9.64.53-11.28-4.77-24.45-13.69-31.51-2.78-2.2-5.27-2.15-8.67-1.91-1.79.13-3.57.43-5.32.8-.02.1.03.12.09.18,1.3,1.26,2.91,2.37,4.27,3.6,1.84,1.65,4.28,3.97,5.78,5.9,1.04,1.34,1.37,3.64,1.7,5.3,1.86,9.38,1.66,18.61-1.58,27.65-2.53,7.04-6.42,13.96-10.78,20.03-.15.21-1.55,1.92-1.47,2.01ZM124.5,201.42c4.27-.61,8.42-2.3,12.05-4.59,10.49-6.6,16.16-17.65,15.57-30.06-.59-12.33-7.2-21.6-17.68-27.64-2.42-1.4-5.16-2.7-7.97-2.99l-.04.24c.4.19.61.54.89.83,1.17,1.19,2.42,2.29,3.54,3.53,6.28,6.95,8.85,16.34,9.44,25.55.24,3.8-.76,6.91-1.89,10.47-2.22,6.98-5.21,12.81-9.5,18.72-1.37,1.89-2.95,3.73-4.26,5.64-.04.06-.21.25-.16.3ZM92.95,190.05c-.06.08.54.64.64.74,3.01,2.89,5.39,5.15,9.13,7.16.96.51,3.34,1.77,4.3,1.97.55.11.8.01,1.17-.37.99-1.04,2.16-2.69,3-3.88,4.17-5.86,8.09-13.99,10.18-20.88,2.43-8.01,1.57-17.58-.1-25.7-.16-.76-.31-1.5-.71-2.18-2.76-3.05-5.73-5.93-8.9-8.56-.64-.53-1.76-1.63-2.58-1.66-.55-.02-2.66.83-3.29,1.08-2.75,1.1-5.3,2.55-7.62,4.37-2.18,1.71-4.05,3.74-5.97,5.71l2.9,2.33c1.49,1.11,2.98,2.3,4.76,2.93.98.35,1.89.4,2.68,1.2,1.12,1.14,1.61,4.6,2.21,6.21s1.38,1.52.94,3.58c-.56,2.69-1.87,5.8-3.12,8.25-1.4,2.74-3.27,5.12-3.89,8.22-.19.97-.15,1.96-.35,2.9-.54,2.56-2.22,3.61-3.97,5.25-.46.44-.89.99-1.41,1.32ZM82.37,142.83c-1.87-.99-3.64-2.2-5.71-2.75-2.01-.54-3.97-1.16-5.97-1.72-.69-.19-.8-.17-1.45.11-2.05.89-4.3,3.15-5.08,5.25-.69,1.84-1.12,4.07-1.69,6-2.14,7.25-5.98,16.37-4.44,23.93.89,4.36,2.22,9.08,3.38,13.4.85,3.17,1.85,6.28,3.59,9.08,2.4,3.86,4.29,4.26,8.45,5.51,1.56.47,4.74,1.54,6.24,1.44,1.01-.07,2.16-.46,3.04-.95-1.59-1.6-3.45-3.12-4.72-4.99s-1.98-3.86-2.76-5.91c-1.45-3.8-3.03-7.85-4.28-11.71-1.73-5.38-.97-8.99,1.73-13.8,1.62-2.9,3.52-5.72,5.02-8.69,1.83-3.59.94-6.83,2.4-10.39.57-1.38,1.48-2.54,2.24-3.81ZM83.63,143.58c-.78,1.2-1.76,2.44-2.32,3.76-.86,2.03-.72,4.47-1.12,6.63-.33,1.78-.84,3-1.69,4.58-1.61,2.99-3.54,5.85-5.13,8.83-2.14,4-2.6,7.48-1.1,11.82,1.79,5.17,4.13,10.26,5.98,15.42,1.12,2.52,3.04,4.6,5.31,6.13.11,0,.21-.14.27-.23.38-.54.75-1.52,1.11-2.15.87-1.55,1.86-3.03,2.94-4.44.27-.36,1.36-1.53,1.42-1.83.03-.14.03-.32,0-.46-.05-.23-.87-1.14-1.08-1.44-6.18-8.66-8.18-18.82-6.13-29.29.68-3.5,2.03-7.08,3.77-10.18.75-1.33,1.66-2.56,2.35-3.93l-4.59-3.22ZM103.73,162.24c-.37-.41-.99-4-1.23-4.82-.84-2.86-2.51-2.75-4.75-3.92-2.2-1.15-4.17-2.78-6.2-4.2h-.13c-6.27,8.2-7.83,19.4-4.81,29.22,1.14,3.72,3,7.31,5.58,10.23.08.01,1.11-.88,1.25-1.01.91-.83,2.71-2.44,3.21-3.49.6-1.29.52-2.74.75-4.11.42-2.62,1.66-4.29,2.88-6.52,1.47-2.68,2.89-5.61,3.76-8.54.16-.56.5-1.49.41-2.04-.08-.49-.49-.55-.72-.79ZM104.63,203.33c-3.83-2.19-7.84-4.19-11.13-7.16-.48-.43-.93-.92-1.42-1.35l-1.81-2-5.49,8.53.21.38c5.05,1.9,10.43,2.52,15.67,3.7,1.52-.06,3.1-.84,3.97-2.09ZM84.4,202.99c-.79-.03-1.62.68-2.28,1.05,1.07.39,2.2.64,3.31.87,2.79.59,5.68.97,8.53,1.07.78.03,1.68.03,2.46,0,.07,0,.23.05.21-.06-3.32-.72-6.72-1.08-9.95-2.13M113.18,205.6c-.02-.11-.13-.1-.21-.13-1.57-.53-3.63-1.06-5.25-1.45-.52-.12-.96-.3-1.49-.11-.35.12-1.56,1.28-1.9,1.6-.05.05-.14.08-.13.18,2.96.57,6.03.53,8.98-.09Z"/>
    </g>
  </g>
</svg>